<svg width="32" height="32" viewBox="0 0 32 32" fill="none" xmlns="http://www.w3.org/2000/svg">
<g id="Iconsax/Bold/apple">
<path id="Vector" fill-rule="evenodd" clip-rule="evenodd" d="M25.4667 25.5467C26.2534 24.3467 26.5467 23.7333 27.1467 22.3867C22.72 20.7067 22.0134 14.4 26.3867 11.9867C25.0534 10.3067 23.1734 9.33332 21.4 9.33332C20.12 9.33332 19.24 9.66666 18.4534 9.97332C17.7867 10.2267 17.1867 10.4533 16.44 10.4533C15.64 10.4533 14.9334 10.2 14.1867 9.93332C13.3734 9.63999 12.52 9.33332 11.4534 9.33332C9.4667 9.33332 7.3467 10.5467 6.00003 12.6267C4.1067 15.56 4.44003 21.0533 7.49336 25.7467C8.5867 27.4267 10.0534 29.3067 11.96 29.3333C12.76 29.3467 13.28 29.1067 13.8534 28.8533C14.5067 28.56 15.2134 28.24 16.4534 28.24C17.6934 28.2267 18.3867 28.56 19.04 28.8533C19.6 29.1067 20.1067 29.3467 20.8934 29.3333C22.8267 29.3067 24.3734 27.2267 25.4667 25.5467ZM21.12 2.66666C21.3334 4.13332 20.7334 5.58666 19.9467 6.59999C19.1067 7.69332 17.64 8.54666 16.2267 8.49332C15.9734 7.07999 16.6267 5.62666 17.4267 4.65332C18.32 3.58666 19.8267 2.75999 21.12 2.66666Z" fill="black"/>
</g>
</svg>
