<svg width="24" height="25" viewBox="0 0 24 25" fill="none" xmlns="http://www.w3.org/2000/svg">
<g id="Iconsax/Linear/filtersearch">
<path id="Vector" d="M14.3201 19.57C14.3201 20.18 13.9201 20.98 13.4101 21.29L12.0001 22.2C10.6901 23.01 8.87006 22.1 8.87006 20.48V15.13C8.87006 14.42 8.47006 13.51 8.06006 13.01L4.22006 8.97001C3.71006 8.46001 3.31006 7.56001 3.31006 6.95001V4.63001C3.31006 3.42001 4.22006 2.51001 5.33006 2.51001H18.6701C19.7801 2.51001 20.6901 3.42001 20.6901 4.53001V6.75001C20.6901 7.56001 20.1801 8.57001 19.6801 9.07001" stroke="#959595" stroke-width="1.5" stroke-miterlimit="10" stroke-linecap="round" stroke-linejoin="round"/>
<path id="Vector_2" d="M19.87 17.62L18.87 16.62M16.07 17.02C16.9187 17.02 17.7326 16.6829 18.3327 16.0827C18.9329 15.4826 19.27 14.6687 19.27 13.82C19.27 12.9713 18.9329 12.1574 18.3327 11.5573C17.7326 10.9571 16.9187 10.62 16.07 10.62C15.2213 10.62 14.4074 10.9571 13.8073 11.5573C13.2071 12.1574 12.87 12.9713 12.87 13.82C12.87 14.6687 13.2071 15.4826 13.8073 16.0827C14.4074 16.6829 15.2213 17.02 16.07 17.02Z" stroke="#959595" stroke-width="1.5" stroke-linecap="round" stroke-linejoin="round"/>
</g>
</svg>
