<svg width="32" height="32" viewBox="0 0 32 32" fill="none" xmlns="http://www.w3.org/2000/svg">
<g id="Isotype">
<path id="Vector" d="M16.0024 1.82301e-07C12.8378 -0.000477422 9.74414 0.937499 7.11264 2.69531C4.48114 4.45312 2.43 6.95181 1.21863 9.87539C0.00725575 12.799 -0.309942 16.0161 0.307148 19.12C0.924239 22.2238 2.4479 25.075 4.68545 27.3128C6.92299 29.5507 9.77391 31.0748 12.8777 31.6924C15.9814 32.3099 19.1986 31.9932 22.1224 30.7823C25.0461 29.5714 27.5451 27.5206 29.3033 24.8894C31.0616 22.2581 32 19.1646 32 16C32 11.757 30.3146 7.68765 27.3146 4.68714C24.3145 1.68663 20.2455 0.000640545 16.0024 1.82301e-07ZM16.0024 29.8726C13.258 29.8731 10.5751 29.0597 8.29295 27.5353C6.01084 26.0108 4.23207 23.8439 3.18161 21.3084C2.13114 18.773 1.85616 15.983 2.39146 13.2913C2.92675 10.5996 4.24827 8.12705 6.18887 6.18645C8.12948 4.24585 10.602 2.92433 13.2937 2.38903C15.9854 1.85374 18.7754 2.12872 21.3109 3.17918C23.8463 4.22965 26.0133 6.00842 27.5377 8.29053C29.0621 10.5726 29.8755 13.2556 29.875 16C29.8738 19.6789 28.4118 23.2067 25.8104 25.808C23.2091 28.4093 19.6813 29.8713 16.0024 29.8726Z" fill="white"/>
<path id="Vector_2" d="M20.984 12.2596C20.3049 12.9395 19.865 13.8216 19.7304 14.7731C19.5959 15.7247 19.7739 16.6942 20.2379 17.5357L17.2315 20.5421V14.2831C18.258 13.9869 19.1429 13.3301 19.7236 12.4334C20.3044 11.5368 20.5418 10.4606 20.3922 9.40278C20.2427 8.345 19.7162 7.3768 18.9097 6.67627C18.1031 5.97574 17.0707 5.59 16.0024 5.59C14.9341 5.59 13.9018 5.97574 13.0952 6.67627C12.2887 7.3768 11.7622 8.345 11.6127 9.40278C11.4631 10.4606 11.7005 11.5368 12.2812 12.4334C12.862 13.3301 13.7469 13.9869 14.7733 14.2831V20.5421L11.767 17.5333C12.2842 16.5979 12.4462 15.5073 12.2233 14.4619C12.0005 13.4166 11.4076 12.4869 10.5539 11.8438C9.70016 11.2007 8.64293 10.8875 7.57668 10.9618C6.51043 11.0361 5.50686 11.4929 4.75055 12.2482C3.99424 13.0034 3.53607 14.0064 3.4603 15.0725C3.38453 16.1386 3.69626 17.1963 4.33816 18.0509C4.98005 18.9056 5.90894 19.4997 6.95397 19.724C7.99899 19.9483 9.08988 19.7878 10.026 19.2719L14.7733 24.0217V28.489H17.2315V24.0217L21.9789 19.2623C22.6999 19.6613 23.5179 19.8514 24.341 19.8112C25.1641 19.7709 25.9596 19.5019 26.6383 19.0344C27.3169 18.567 27.8517 17.9195 28.1826 17.1648C28.5136 16.4101 28.6275 15.578 28.5116 14.7622C28.3956 13.9463 28.0545 13.1789 27.5265 12.5462C26.9985 11.9135 26.3045 11.4406 25.5225 11.1807C24.7405 10.9207 23.9015 10.8839 23.0998 11.0745C22.2981 11.2651 21.5654 11.6755 20.984 12.2596Z" fill="white"/>
</g>
</svg>
