<svg width="200" height="29" viewBox="0 0 200 29" fill="none" xmlns="http://www.w3.org/2000/svg">
<g id="Logotype">
<path id="Vector" d="M53.1279 0.700378H30.0929V15.6413L33.2486 17.896H30.0929V24.6113H36.8131V22.127L45.1941 28.1187H57.4654L36.8131 13.3726V8.0212H49.2249C50.315 9.34194 50.9495 11.0345 51.0199 12.809V13.3866H57.7464V8.51528C57.7464 3.97804 53.1279 0.700378 53.1279 0.700378Z" fill="white"/>
<path id="Vector_2" d="M177.176 0.69342H164.905L156.523 6.67813V0.69342H149.803V15.6343L152.959 17.889H149.803V24.6114H156.523V22.127L164.905 28.1117H177.176L157.974 14.4026L177.176 0.69342Z" fill="white"/>
<path id="Vector_3" d="M110.224 0.700378H101.025V8.0212H114.816C114.484 3.72753 110.224 0.700378 110.224 0.700378Z" fill="white"/>
<path id="Vector_4" d="M89.041 8.02121L107.145 20.9509H98.8402C97.7509 19.629 97.1145 17.9376 97.0387 16.1632V15.5856H90.325V20.4569C90.325 25.0289 94.9371 28.3066 94.9371 28.3066H117.978V19.9558L101.28 8.02121H89.041Z" fill="white"/>
<path id="Vector_5" d="M12.5963 0.70038C10.6056 0.699416 8.64316 1.21265 6.86987 2.19798C5.09658 3.18332 3.56303 4.61266 2.39504 6.36872C1.22706 8.12478 0.457936 10.1575 0.150784 12.3001C-0.156368 14.4427 0.00720471 16.6341 0.628082 18.6945C1.24896 20.7549 2.30944 22.6256 3.72252 24.153C5.13559 25.6804 6.86098 26.821 8.7571 27.4813C10.6532 28.1416 12.666 28.3027 14.6304 27.9514C16.5947 27.6001 18.4546 26.7464 20.0574 25.4603L16.3205 19.3434C15.5945 19.9979 14.7346 20.4524 13.8134 20.6685C12.8922 20.8845 11.9368 20.8559 11.0279 20.5849C10.119 20.3139 9.28337 19.8085 8.59158 19.1115C7.89979 18.4145 7.37219 17.5463 7.05336 16.5803C6.73453 15.6143 6.63384 14.5789 6.7598 13.5616C6.88576 12.5443 7.23468 11.5749 7.77705 10.7355C8.31943 9.89603 9.03933 9.21115 9.87592 8.73872C10.7125 8.26628 11.6412 8.02018 12.5835 8.0212H15.4389L20.792 11.8208V28.1187H27.493V17.896L24.3374 15.6413H27.493V7.86114L17.4639 0.70038H12.5963Z" fill="white"/>
<path id="Vector_6" d="M72.4834 0.70038C70.4928 0.699416 68.5303 1.21265 66.757 2.19798C64.9837 3.18332 63.4502 4.61266 62.2822 6.36872C61.1142 8.12478 60.3451 10.1575 60.0379 12.3001C59.7308 14.4427 59.8944 16.6341 60.5152 18.6945C61.1361 20.7549 62.1966 22.6256 63.6097 24.153C65.0228 25.6804 66.7481 26.821 68.6443 27.4813C70.5404 28.1416 72.5532 28.3027 74.5175 27.9514C76.4819 27.6001 78.3418 26.7464 79.9446 25.4603L76.2204 19.3434C75.4944 19.9979 74.6345 20.4524 73.7133 20.6685C72.7921 20.8845 71.8367 20.8559 70.9278 20.5849C70.019 20.3139 69.1833 19.8085 68.4915 19.1115C67.7997 18.4145 67.2721 17.5463 66.9533 16.5803C66.6345 15.6143 66.5338 14.5789 66.6597 13.5616C66.7857 12.5443 67.1346 11.5749 67.677 10.7355C68.2194 9.89603 68.9393 9.21115 69.7759 8.73872C70.6124 8.26628 71.5411 8.02018 72.4834 8.0212H75.3389L80.66 11.8208V28.1187H87.3802V17.896L84.2245 15.6413H87.3802V7.86114L77.3511 0.70038H72.4834Z" fill="white"/>
<path id="Vector_7" d="M132.224 0.70038C130.233 0.699416 128.271 1.21265 126.497 2.19798C124.724 3.18332 123.19 4.61266 122.022 6.36872C120.854 8.12478 120.085 10.1575 119.778 12.3001C119.471 14.4427 119.635 16.6341 120.255 18.6945C120.876 20.7549 121.937 22.6256 123.35 24.153C124.763 25.6804 126.488 26.821 128.385 27.4813C130.281 28.1416 132.293 28.3027 134.258 27.9514C136.222 27.6001 138.082 26.7464 139.685 25.4603L135.967 19.3434C135.241 19.9977 134.382 20.4521 133.461 20.6683C132.54 20.8844 131.585 20.856 130.676 20.5854C129.767 20.3147 128.932 19.8098 128.24 19.1133C127.548 18.4168 127.02 17.5491 126.701 16.5836C126.382 15.6181 126.281 14.583 126.406 13.5659C126.531 12.5488 126.879 11.5794 127.421 10.7397C127.962 9.90006 128.682 9.21469 129.518 8.74152C130.353 8.26836 131.282 8.0213 132.224 8.0212H135.085L140.4 11.8208V28.1187H147.127V17.896L143.971 15.6413H147.127V7.86114L137.091 0.70038H132.224Z" fill="white"/>
<path id="Vector_8" d="M200 7.86114L189.971 0.70038H185.103C183.113 0.699416 181.15 1.21265 179.377 2.19798C177.604 3.18332 176.07 4.61266 174.902 6.36872C173.734 8.12478 172.965 10.1575 172.658 12.3001C172.351 14.4427 172.514 16.6341 173.135 18.6945C173.756 20.7549 174.816 22.6256 176.229 24.153C177.643 25.6804 179.368 26.821 181.264 27.4813C183.16 28.1416 185.173 28.3027 187.137 27.9514C189.102 27.6001 190.962 26.7464 192.564 25.4603L188.84 19.3434C188.114 19.9979 187.254 20.4524 186.333 20.6685C185.412 20.8845 184.457 20.8559 183.548 20.5849C182.639 20.3139 181.803 19.8085 181.111 19.1115C180.42 18.4145 179.892 17.5463 179.573 16.5803C179.254 15.6143 179.154 14.5789 179.28 13.5616C179.406 12.5443 179.754 11.5749 180.297 10.7355C180.839 9.89603 181.559 9.21115 182.396 8.73872C183.232 8.26628 184.161 8.02018 185.103 8.0212H187.959L193.28 11.8208V28.1187H200V17.896L196.844 15.6413H200V7.86114Z" fill="white"/>
</g>
</svg>
